<?xml version="1.0" standalone="no"?>
<!DOCTYPE svg PUBLIC "-//W3C//DTD SVG 20010904//EN"
 "http://www.w3.org/TR/2001/REC-SVG-20010904/DTD/svg10.dtd">
<svg version="1.0" xmlns="http://www.w3.org/2000/svg"
 width="700.000000pt" height="700.000000pt" viewBox="0 0 700.000000 700.000000"
 preserveAspectRatio="xMidYMid meet">
<metadata>
Created by potrace 1.11, written by Peter Selinger 2001-2013
</metadata>
<g transform="translate(0.000000,700.000000) scale(0.100000,-0.100000)"
fill="#000000" stroke="none">
<path d="M601 6858 c-73 -8 -190 -68 -243 -123 -154 -161 -175 -390 -41 -461
23 -12 40 -24 37 -27 -3 -2 -5 -289 -5 -636 l0 -631 -34 -72 c-110 -236 -211
-546 -249 -763 -3 -16 -10 -55 -16 -85 -6 -30 -13 -71 -16 -90 -2 -19 -6 -48
-9 -65 -14 -94 -20 -225 -20 -420 0 -246 7 -330 41 -560 16 -104 78 -355 119
-480 101 -308 282 -665 459 -905 14 -19 34 -46 43 -59 135 -187 379 -440 579
-601 315 -253 609 -417 988 -551 133 -47 358 -111 438 -123 21 -3 57 -10 80
-15 24 -5 67 -12 97 -16 30 -4 61 -8 70 -10 16 -3 83 -10 199 -21 201 -18 532
-2 767 37 66 11 140 25 165 30 25 6 56 13 70 15 86 16 326 92 487 155 774 303
1452 958 1801 1739 106 238 209 569 237 767 4 21 10 63 15 93 26 153 35 288
35 520 -1 184 -8 339 -20 395 -3 11 -7 38 -10 60 -21 147 -32 203 -69 360 -20
81 -86 289 -126 393 -16 39 -28 73 -27 73 1 1 63 2 137 3 141 3 185 12 255 52
58 34 100 81 132 149 l28 60 0 780 0 780 -26 56 c-15 31 -35 66 -45 78 -32 38
-107 88 -159 106 -47 17 -216 18 -3080 19 -1667 1 -3054 -2 -3084 -6z"/>
</g>
</svg>
